# xmcd
#
# Track frame offsets: 
#        150
#        13644
#        25511
#        35594
#        49816
#        59431
#        72852
#        82434
#        90947
#        107401
#        132210
#        136833
#        148564
#        163709
#        178294
#        183814
#        200564
#        212017
#
# Disc length: 2940 seconds
#
# Revision: 1
# Processed by: cddbd v1.5.2PL0 Copyright (c) Steve Scherf et al.
# Submitted via: ExactAudioCopy v0.99pb5
#
DISCID=f90b7a12
DTITLE=Fred Eaglesmith - Tinderbox
DYEAR=2008
DGENRE=Folk-Rock
TTITLE0=Sweet Corn
TTITLE1=Chain Gang
TTITLE2=Shoulder to the Plow
TTITLE3=Quietly
TTITLE4=Tinderbox
TTITLE5=Killing Me
TTITLE6=Worked Up Field
TTITLE7=I Pray Now
TTITLE8=You Can't Trust Them
TTITLE9=Get on Your Knees
TTITLE10=Fancy God
TTITLE11=Wheels
TTITLE12=Killing Me II
TTITLE13=Stand
TTITLE14=Reprise
TTITLE15=Light Brigade
TTITLE16=Shoeshine
TTITLE17=When
EXTD=
EXTT0=
EXTT1=
EXTT2=
EXTT3=
EXTT4=
EXTT5=
EXTT6=
EXTT7=
EXTT8=
EXTT9=
EXTT10=
EXTT11=
EXTT12=
EXTT13=
EXTT14=
EXTT15=
EXTT16=
EXTT17=
PLAYORDER=
